<svg xmlns="http://www.w3.org/2000/svg" viewBox="0 0 82 82"><defs><style>.cls-1{fill:#1e6e7a;}.cls-2{fill:#fff;}</style></defs><title>Fichier 3</title><g id="Calque_2" data-name="Calque 2"><g id="Calque_1-2" data-name="Calque 1"><circle class="cls-1" cx="41" cy="41" r="41"/><path class="cls-2" d="M45.34,41,58.45,27.89a3.07,3.07,0,1,0-4.34-4.34L41,36.66,27.89,23.55a3,3,0,0,0-2.17-.9h0a3.07,3.07,0,0,0-2.17,5.24L36.66,41,23.55,54.11a3.07,3.07,0,0,0,0,4.34,3.14,3.14,0,0,0,4.34,0L41,45.34,54.11,58.45a3.07,3.07,0,0,0,4.34-4.34Z"/></g></g></svg>